<svg width="18" height="18" viewBox="0 0 18 18" fill="none" xmlns="http://www.w3.org/2000/svg">
<path d="M14.3251 10.6366C14.092 10.8625 13.985 11.1891 14.0381 11.5095L14.838 15.9369C14.9055 16.3122 14.7472 16.6919 14.4331 16.9088C14.1253 17.1338 13.7159 17.1608 13.3802 16.9808L9.39466 14.9021C9.25608 14.8283 9.1022 14.7887 8.94472 14.7842H8.70085C8.61626 14.7968 8.53347 14.8238 8.45788 14.8652L4.4714 16.9538C4.27433 17.0528 4.05116 17.0879 3.83249 17.0528C3.29976 16.952 2.9443 16.4445 3.03159 15.909L3.83249 11.4816C3.88558 11.1585 3.77849 10.8301 3.54543 10.6006L0.29595 7.45103C0.0241851 7.18736 -0.0703026 6.79141 0.0538812 6.43416C0.174465 6.07781 0.482225 5.81774 0.853877 5.75925L5.32629 5.11043C5.66645 5.07534 5.96521 4.86836 6.11819 4.5624L8.08893 0.521932C8.13573 0.431944 8.19602 0.349154 8.26891 0.278964L8.3499 0.215972C8.39219 0.169178 8.44079 0.130483 8.49478 0.0989871L8.59287 0.0629918L8.74585 0H9.1247C9.46305 0.0350954 9.76091 0.237569 9.91659 0.53993L11.9134 4.5624C12.0574 4.85667 12.3373 5.06094 12.6603 5.11043L17.1327 5.75925C17.5107 5.81324 17.8266 6.07421 17.9516 6.43416C18.0695 6.79501 17.9678 7.19096 17.6907 7.45103L14.3251 10.6366Z" fill="#FFD600"/>
</svg>
