<svg xmlns="http://www.w3.org/2000/svg" width="48" height="52.762" viewBox="0 0 48 52.762"><path d="M35.959,22.84V12.855a1.156,1.156,0,0,0-.319-.759L24.445.341a1.116,1.116,0,0,0-.8-.341H5.894A5.913,5.913,0,0,0,0,5.949V39.511a5.876,5.876,0,0,0,5.894,5.905H19.9A15.123,15.123,0,1,0,35.959,22.84ZM24.743,3.86l7.51,7.906H27.382a2.656,2.656,0,0,1-2.639-2.65ZM5.894,43.217A3.684,3.684,0,0,1,2.2,39.511V5.949A3.714,3.714,0,0,1,5.894,2.2H22.543V9.116a4.848,4.848,0,0,0,4.839,4.849h6.378v8.588c-.33-.011-.594-.044-.88-.044a15.344,15.344,0,0,0-10.029,3.783H8.885a1.1,1.1,0,1,0,0,2.2h11.92A17.5,17.5,0,0,0,18.87,31.9H8.885a1.1,1.1,0,0,0,0,2.2h9.27a15.092,15.092,0,0,0,.66,9.127H5.894Zm26.975,7.357A12.921,12.921,0,1,1,45.79,37.652,12.935,12.935,0,0,1,32.869,50.573Zm0,0"/><path d="M76.284,203.15H83.71a.733.733,0,1,0,0-1.466H76.284a.733.733,0,1,0,0,1.466Zm0,0" transform="translate(-66.767 -180.599)"/><path d="M251.123,283.446a.728.728,0,0,0-1.07,0l-4.3,4.611a.731.731,0,0,0,.037,1.034.749.749,0,0,0,1.048-.036l3.035-3.248v8.005a.733.733,0,1,0,1.466,0v-8.005l3.013,3.248a.732.732,0,0,0,1.07-1Zm0,0" transform="translate(-216.385 -246.167)"/></svg>